# xmcd CD database file
#
# Track frame offsets:
#	150
#	29955
#	53663
#	85062
#	104585
#	144566
#	175296
#	221532
#	261409
#	286483
#
# Disc length: 4120 seconds
#
# Revision: 0
# Processed by: cddbd v1.5.2PL0 Copyright (c) Steve Scherf et al.
# Submitted via: CDex 1.70beta2
#
DISCID=9c10160a
DTITLE=Denis Staguet - De la terre à l'océan
DYEAR=1900
DGENRE=New Age
TTITLE0=Le paradis bleu
TTITLE1=Eternelle nature
TTITLE2=La plage du prophète
TTITLE3=Mémoire de la terre
TTITLE4=Mystère aquatique
TTITLE5=Un piano dans l'Océan
TTITLE6=Un soir de pluie
TTITLE7=Océanides
TTITLE8=L'esprit de la forêt
TTITLE9=Le chant des baleines
EXTD=
EXTT0=
EXTT1=
EXTT2=
EXTT3=
EXTT4=
EXTT5=
EXTT6=
EXTT7=
EXTT8=
EXTT9=
PLAYORDER=
